<svg width="30" height="21" viewBox="0 0 30 21" fill="none" xmlns="http://www.w3.org/2000/svg">
<path d="M28.9062 10.0386C29.2407 11.1082 28.4398 12.1947 27.3191 12.1917L2.48392 12.125C1.76037 12.123 1.12161 11.6522 0.905679 10.9616V10.9616C0.571218 9.89198 1.37212 8.80547 2.49283 8.80848L27.328 8.8752C28.0515 8.87714 28.6903 9.34799 28.9062 10.0386V10.0386Z" fill="#FBFBFD" style="mix-blend-mode:overlay"/>
<path d="M17.0001 5C17.0001 6.10457 16.1047 7 15.0001 7C13.8956 7 13.0001 6.10457 13.0001 5C13.0001 3.89543 13.8956 3 15.0001 3C16.1047 3 17.0001 3.89543 17.0001 5Z" fill="#FBFBFD"/>
<path d="M17.0001 16C17.0001 17.1046 16.1047 18 15.0001 18C13.8956 18 13.0001 17.1046 13.0001 16C13.0001 14.8954 13.8956 14 15.0001 14C16.1047 14 17.0001 14.8954 17.0001 16Z" fill="#FBFBFD"/>
</svg>
